<svg xmlns="http://www.w3.org/2000/svg" width="48" height="48" viewBox="0 0 48 48"><defs><style>.a{fill:none;}.b{fill:#03b075;}</style></defs><g transform="translate(-142 -503)"><rect class="a" width="48" height="48" transform="translate(142 503)"/><path class="b" d="M20,3C11.16,3,4,6.58,4,11s7.16,8,16,8,16-3.58,16-8S28.84,3,20,3M4,15v6c0,4.42,7.16,8,16,8s16-3.58,16-8V15c0,4.42-7.16,8-16,8S4,19.42,4,15M4,25v6c0,4.42,7.16,8,16,8s16-3.58,16-8V25c0,4.42-7.16,8-16,8S4,29.42,4,25Z" transform="translate(146 506)"/></g></svg>