<svg width="520" height="252" xmlns="http://www.w3.org/2000/svg">

 <g>
  <title>background</title>
  <rect fill="#e4002b" id="canvas_background" height="254" width="522" y="-1" x="-1"/>
 </g>
 <g>
  <title>Layer 1</title>
  <path id="svg_1" d="m502.66016,61.45703c7.90625,0 14.33984,-6.43359 14.33984,-14.33984l0,-18.92969c0,-12.78516 -10.40234,-23.1875 -23.1875,-23.1875l-389.57812,0c-4.23047,0 -7.66407,3.43359 -7.66407,7.66406c0,4.23438 3.4336,7.66407 7.66407,7.66407l389.57812,0c4.33203,0 7.85938,3.52734 7.85938,7.85937l0,17.9375c-15.875,0 -24.76563,-1.60937 -33.5586,7.18359c-15.45312,15.45313 -4.35156,41.875 17.78125,41.875l15.77735,0l0,64.44532c0,4.33203 -3.52735,7.85937 -7.85938,7.85937c-1.6875,0 -456.33594,0 -465.625,0c-4.33203,0 -7.85937,-3.52734 -7.85937,-7.85937l0,-64.44532l16.21093,0c13.58203,0 24.52735,-10.99218 24.52735,-24.53125c-0.07813,-13.89453 -11.56641,-24.52734 -24.96875,-24.52734l-15.76953,0l0,-17.93359c0,-4.33594 3.52734,-7.85938 7.85937,-7.85938l45.38672,0c4.23437,0 7.66797,-3.43359 7.66797,-7.66797c0,-4.23047 -3.4336,-7.66406 -7.66797,-7.66406l-45.38672,0c-12.78516,0 -23.1875,10.40234 -23.1875,23.19141l0,18.92578c0,7.90625 6.43359,14.33984 14.33984,14.33984l16.75782,0c8.55078,0 12.77734,9.85547 6.94922,15.70313c-3.48047,3.48047 -5.75,2.6914 -23.70704,2.6914c-7.90625,0 -14.33984,6.4336 -14.33984,14.33985l0,65.4375c0,12.78515 10.40234,23.1875 23.1875,23.1875l3.64063,0l0,56.72265c0,4.23438 3.42968,7.66407 7.66406,7.66407l204.64453,0c4.23437,0 7.66406,-3.42969 7.66406,-7.66407l0,-28.10547c0,-5.07031 4.12891,-9.19921 9.19922,-9.19921c5.09375,0 9.19922,4.12109 9.19922,9.19921l0,28.10547c0,4.23438 3.42969,7.66407 7.66406,7.66407l204.64453,0c4.23438,0 7.66406,-3.42969 7.66406,-7.66407l0,-56.72265l3.64063,0c12.78516,0 23.1875,-10.40235 23.1875,-23.1875l0,-65.4375c0,-7.90625 -6.43359,-14.33985 -14.33984,-14.33985l-16.76563,0c-8.51953,0 -12.77344,-9.87109 -6.94141,-15.70312c3.47657,-3.47656 5.73438,-2.69141 23.70704,-2.69141zm-27.81641,170.41797l-19.15234,0l0,-31.86719c0,-4.23437 -3.4336,-7.66406 -7.66407,-7.66406c-4.23437,0 -7.66796,3.42969 -7.66796,7.66406l0,31.86719l-18.82032,0l0,-31.86719c0,-4.23437 -3.43359,-7.66406 -7.66406,-7.66406c-4.23437,0 -7.66797,3.42969 -7.66797,7.66406l0,31.86719l-18.82031,0l0,-31.86719c0,-4.23437 -3.4336,-7.66406 -7.66406,-7.66406c-4.23438,0 -7.66797,3.42969 -7.66797,7.66406l0,31.86719l-18.82031,0l0,-31.86719c0,-4.23437 -3.42969,-7.66406 -7.66407,-7.66406c-4.23437,0 -7.66406,3.42969 -7.66406,7.66406l0,31.86719l-18.82422,0l0,-31.86719c0,-4.23437 -3.42969,-7.66406 -7.66406,-7.66406s-7.66406,3.42969 -7.66406,7.66406l0,31.86719l-18.22657,0l0,-20.44141c0,-13.51953 -10.9375,-24.52734 -24.52734,-24.52734c-13.52344,0 -24.52734,11 -24.52734,24.52734l0,20.44141l-18.22657,0l0,-31.86719c0,-4.23437 -3.42968,-7.66406 -7.66406,-7.66406s-7.66406,3.42969 -7.66406,7.66406l0,31.86719l-18.82422,0l0,-31.86719c0,-4.23437 -3.42969,-7.66406 -7.66406,-7.66406c-4.23438,0 -7.66406,3.42969 -7.66406,7.66406l0,31.86719l-18.82422,0l0,-31.86719c0,-4.23437 -3.42969,-7.66406 -7.66407,-7.66406s-7.66406,3.42969 -7.66406,7.66406l0,31.86719l-18.82422,0l0,-31.86719c0,-4.23437 -3.42968,-7.66406 -7.66406,-7.66406s-7.66406,3.42969 -7.66406,7.66406l0,31.86719l-18.82031,0l0,-31.86719c0,-4.23437 -3.4336,-7.66406 -7.66797,-7.66406c-4.23047,0 -7.66407,3.42969 -7.66407,7.66406l0,31.86719l-19.15234,0l0,-49.05859l427.6875,0l0,49.05859zm0,0"/>
  <path id="svg_2" d="m144.72656,154.87109c8.92578,0 16.1875,-7.26562 16.1875,-16.1914l0,-88.21485c0,-8.92578 -7.26172,-16.1914 -16.1875,-16.1914l-30.71484,0c-8.92578,0 -16.19141,7.26562 -16.19141,16.1914l0,88.21485c0,8.92578 7.26563,16.1914 16.19141,16.1914l30.71484,0zm-31.57422,-16.1914c0,-93.5586 -0.41796,-89.07422 0.85938,-89.07422c32.94922,0 31.57422,-0.37109 31.57422,0.85547c0,93.55859 0.41797,89.07812 -0.85938,89.07812c-32.94922,0 -31.57422,0.36719 -31.57422,-0.85937zm0,0"/>
  <path id="svg_3" d="m232.48047,154.87109c8.92578,0 16.1875,-7.26562 16.1875,-16.1914l0,-88.21485c0,-8.92578 -7.26172,-16.1914 -16.1875,-16.1914l-30.71484,0c-8.92579,0 -16.19141,7.26562 -16.19141,16.1914l0,88.21485c0,8.92578 7.26562,16.1914 16.19141,16.1914l30.71484,0zm-31.57422,-16.1914c0,-93.5586 -0.41797,-89.07422 0.85938,-89.07422l30.71484,0c0.47266,0 0.85937,0.38281 0.85937,0.85547c0,93.55859 0.41797,89.07812 -0.85937,89.07812c-32.94922,0 -31.57422,0.36719 -31.57422,-0.85937zm0,0"/>
  <path id="svg_4" d="m320.23438,154.87109c8.92578,0 16.1914,-7.26562 16.1914,-16.1914l0,-88.21485c0,-8.92578 -7.26562,-16.1914 -16.1914,-16.1914l-30.71485,0c-8.92578,0 -16.1875,7.26562 -16.1875,16.1914l0,88.21485c0,8.92578 7.26172,16.1914 16.1875,16.1914l30.71485,0zm-31.57422,-16.1914c0,-93.5586 -0.41797,-89.07422 0.85937,-89.07422c32.94922,0 31.57422,-0.37109 31.57422,0.85547c0,93.55859 0.41797,89.07812 -0.85937,89.07812c-32.94922,0 -31.57422,0.36719 -31.57422,-0.85937zm0,0"/>
  <path id="svg_5" d="m407.98828,154.87109c8.92578,0 16.19141,-7.26562 16.19141,-16.1914l0,-88.21485c0,-8.92578 -7.26563,-16.1914 -16.19141,-16.1914l-30.71484,0c-8.92578,0 -16.1875,7.26562 -16.1875,16.1914l0,88.21485c0,8.92578 7.26172,16.1914 16.1875,16.1914l30.71484,0zm-31.57422,-16.1914c0,-93.5586 -0.41797,-89.07422 0.85938,-89.07422l30.71484,0c0.47656,0 0.85938,0.38281 0.85938,0.85547c0,93.55859 0.41796,89.07812 -0.85938,89.07812c-32.94922,0 -31.57422,0.36719 -31.57422,-0.85937zm0,0"/>
 </g>
</svg>