<svg xmlns="http://www.w3.org/2000/svg" width="48" height="48" viewBox="0 0 48 48"><defs><style>.a{fill:none;}.b{fill:#e4002b;}</style></defs><path class="a" d="M0,0H48V48H0Z"/><path class="b" d="M16,40a2,2,0,0,1-2-2H0V34H14a2,2,0,0,1,2-2h2V28h4v4h2a2,2,0,0,1,2,2H40v4H26a2,2,0,0,1-2,2Zm2-12ZM4,28a2,2,0,0,1-2-2V18a2,2,0,0,1,2-2H36a2,2,0,0,1,2,2v8a2,2,0,0,1-2,2Zm2-6a2,2,0,1,0,2-2A2,2,0,0,0,6,22ZM4,12a2,2,0,0,1-2-2V2A2,2,0,0,1,4,0H36a2,2,0,0,1,2,2v8a2,2,0,0,1-2,2ZM6,6A2,2,0,1,0,8,4,2,2,0,0,0,6,6Z" transform="translate(3.999 4.001)"/></svg>