<svg xmlns="http://www.w3.org/2000/svg" width="48" height="48" viewBox="0 0 48 48"><defs><style>.a{fill:none;}.b{fill:#03b075;}</style></defs><path class="a" d="M0,0H48V48H0Z"/><path class="b" d="M26.933,17.365A11.109,11.109,0,0,0,27.023,16a8.4,8.4,0,0,0-.108-1.365l3.042-2.31a.71.71,0,0,0,.18-.892l-2.88-4.848a.742.742,0,0,0-.882-.315l-3.582,1.4a10.624,10.624,0,0,0-2.43-1.365l-.54-3.71A.713.713,0,0,0,19.1,2h-5.76a.694.694,0,0,0-.7.6l-.54,3.71A10.908,10.908,0,0,0,9.67,7.67L6.088,6.27a.721.721,0,0,0-.882.315l-2.88,4.847a.666.666,0,0,0,.18.892l3.042,2.31a8.021,8.021,0,0,0-.018,2.73l-3.042,2.31a.71.71,0,0,0-.18.892l2.88,4.847a.742.742,0,0,0,.882.315l3.582-1.4a10.624,10.624,0,0,0,2.43,1.365l.54,3.71a.727.727,0,0,0,.72.6H19.1a.682.682,0,0,0,.7-.6l.54-3.71a10.908,10.908,0,0,0,2.43-1.365l3.582,1.4a.721.721,0,0,0,.882-.315l2.88-4.847a.666.666,0,0,0-.18-.892l-3.006-2.31ZM16.222,21.25a5.342,5.342,0,0,1-5.4-5.25,5.4,5.4,0,0,1,10.8,0A5.342,5.342,0,0,1,16.222,21.25Z" transform="translate(1.778 14)"/><path class="b" d="M16.343,10.78a6.348,6.348,0,0,0,.051-.78,4.8,4.8,0,0,0-.062-.78L18.071,7.9a.405.405,0,0,0,.1-.51L16.528,4.62a.424.424,0,0,0-.5-.18l-2.047.8a6.071,6.071,0,0,0-1.389-.78L12.28,2.34A.407.407,0,0,0,11.868,2H8.577a.4.4,0,0,0-.4.34L7.867,4.46a6.233,6.233,0,0,0-1.389.78l-2.047-.8a.412.412,0,0,0-.5.18L2.282,7.39a.381.381,0,0,0,.1.51L4.123,9.22a4.584,4.584,0,0,0-.01,1.56L2.374,12.1a.405.405,0,0,0-.1.51l1.646,2.77a.424.424,0,0,0,.5.18l2.047-.8a6.071,6.071,0,0,0,1.389.78l.309,2.12a.415.415,0,0,0,.411.34h3.292a.39.39,0,0,0,.4-.34l.309-2.12a6.233,6.233,0,0,0,1.389-.78l2.047.8a.412.412,0,0,0,.5-.18l1.646-2.77a.381.381,0,0,0-.1-.51l-1.718-1.32ZM10.222,13a3.053,3.053,0,0,1-3.086-3,3.087,3.087,0,0,1,6.172,0A3.053,3.053,0,0,1,10.222,13Z" transform="translate(25.778 2)"/></svg>