<svg xmlns="http://www.w3.org/2000/svg" width="48" height="48" viewBox="0 0 48 48"><defs><style>.a{fill:none;}.b{fill:#03b075;}</style></defs><g transform="translate(-389 -448)"><rect class="a" width="48" height="48" transform="translate(389 448)"/><path class="b" d="M30.72,26A33.031,33.031,0,0,0,31,22a33.031,33.031,0,0,0-.28-4h6.76a15.645,15.645,0,0,1,0,8M27.18,37.12A31.3,31.3,0,0,0,29.94,30h5.9a16.059,16.059,0,0,1-8.66,7.12M26.68,26H17.32a25.16,25.16,0,0,1,0-8h9.36A29.17,29.17,0,0,1,27,22a29.426,29.426,0,0,1-.32,4M22,37.92A27.126,27.126,0,0,1,18.18,30h7.64A27.126,27.126,0,0,1,22,37.92M14,14H8.16A15.846,15.846,0,0,1,16.8,6.88,34.469,34.469,0,0,0,14,14M8.16,30H14a34.469,34.469,0,0,0,2.8,7.12A16.016,16.016,0,0,1,8.16,30M6.52,26a15.645,15.645,0,0,1,0-8h6.76A33.031,33.031,0,0,0,13,22a33.031,33.031,0,0,0,.28,4M22,6.06A27.238,27.238,0,0,1,25.82,14H18.18A27.238,27.238,0,0,1,22,6.06M35.84,14h-5.9a31.3,31.3,0,0,0-2.76-7.12A15.974,15.974,0,0,1,35.84,14M22,2A20,20,0,1,0,42,22,20.02,20.02,0,0,0,22,2Z" transform="translate(391 450)"/></g></svg>